<?xml version="1.0" encoding="UTF-8" standalone="no"?>
<svg id="s" width="700" height="180" viewBox="0 0 685 170" xmlns="http://www.w3.org/2000/svg">

<style>
	#tree path, .stroke{
		stroke: #13211f;
		stroke-width: 4px;
	}
	
	#tree path.leaf{
		stroke-width: 0;
		fill: #2c9659;
	}
	#tree-acorn .base{
		fill: #00f;
	}
	#tree-acorn .top{
		fill: #ce5a00;
	}
</style>


<g id="tree" transform="translate(110, 170)"><g id="tree-branches"><path d="M 4.898587196589413e-16 -8 L 6.6130927153957075e-15 -108"></path><path d="M -7.977630377449435 -99.5978407486914 L -77.78189618013205 -104.82894729974113"></path><path d="M -8.521209962535305 -107.57935196115473 L -11.239107887964657 -147.4869080234714"></path><path d="M -2.654026340558457 -108.83480261570338 L 2.2352933444222494 -109.88101149449392"></path><path d="M -14.83621484088427 -113.1120176172012 L -19.76479443998307 -113.5609075098961"></path><path d="M -3.425992579532478 -119.1850239185934 L 1.189832550143164 -120.48694225647431"></path><path d="M -15.397039001766155 -123.84853885048663 L -19.829342923792865 -124.83529862574788"></path><path d="M -4.523313160603506 -130.23575898161016 L -0.7880975764112357 -132.12024518163025"></path><path d="M -15.554243628614245 -135.26834299186524 L -18.865530744056834 -136.97339486175187"></path><path d="M -6.327308752616213 -141.7629507053474 L -4.095981128913419 -144.00514258665882"></path><path d="M -14.813095114954713 -147.04629385455453 L -16.443813643150015 -148.94122316241817"></path><path d="M -19.846751775727327 -92.5733288668774 L -29.200427003442094 -54.25397400193613"></path><path d="M -25.8187693434159 -93.15212604311363 L -30.79545064982305 -93.63445702331049"></path><path d="M -15.485501539925945 -85.45660565401548 L -10.923812891892135 -83.53738818879275"></path><path d="M -28.182001662160573 -83.18846964671344 L -32.97538704883939 -83.34432060445755"></path><path d="M -18.166870416785365 -75.18865048378362 L -14.24094905904034 -72.90695059026379"></path><path d="M -30.447105861694908 -72.45868933848925 L -34.57744898000304 -71.79281440766242"></path><path d="M -21.43969579109948 -64.3915795678358 L -18.799589335807653 -61.764478095751706"></path><path d="M -32.18283914255727 -61.06095173290337 L -34.988039131117816 -59.5990692406702"></path><path d="M -25.677132352792015 -53.524991055339335 L -24.696263499797958 -51.22544842837498"></path><path d="M -29.158851959697493 -108.99620569055506 L -35.00092858653521 -146.3195312995267"></path><path d="M -23.423414477033653 -110.75823772274252 L -18.643883241480452 -112.22659774956541"></path><path d="M -35.88907347677386 -113.68299272508223 L -40.83802167452896 -113.70062044056144"></path><path d="M -25.00861148509027 -120.45291958239784 L -20.52382062332356 -122.1521793955134"></path><path d="M -37.29760012344799 -123.78090677191209 L -41.79903957202866 -124.37761088790994"></path><path d="M -26.97897856081385 -130.81709303649012 L -23.422220394072312 -133.0199536861401"></path><path d="M -38.36359515963304 -134.59468138935722 L -41.81088689003972 -136.00464733411258"></path><path d="M -29.694857469863624 -141.59431930440277 L -27.66744062022371 -144.02245198502675"></path><path d="M -38.5658701037388 -145.84353650692165 L -40.355537226888096 -147.58912855213683"></path><path d="M -41.11156789233793 -94.51542711836294 L -55.18954613994519 -62.47154270245766"></path><path d="M -46.89235001923056 -96.12246103256595 L -51.70966845830776 -97.46165596106847"></path><path d="M -37.82892089198357 -87.25813285246493 L -33.669803159954576 -84.57594369218215"></path><path d="M -50.5029303606652 -87.73781212252848 L -55.196430217842 -88.72365799128133"></path><path d="M -41.80564550990838 -78.62905198429176 L -38.33558074757741 -75.7002871496702"></path><path d="M -54.14990939066828 -78.58163867527992 L -58.333131284470916 -78.64310643649853"></path><path d="M -46.45672105711447 -69.58159917044898 L -44.31291513433901 -66.53595959798265"></path><path d="M -57.3915494031902 -68.67573140757122 L -60.407985331413855 -67.72317606123201"></path><path d="M -52.0698247842496 -60.633187863399684 L -51.50316891977265 -58.19825436713046"></path><path d="M -51.10641759845384 -109.90129651362018 L -63.70888834084295 -138.34560993045497"></path><path d="M -46.02245785689329 -113.08772921276693 L -41.785824738926166 -115.74308979538921"></path><path d="M -58.48277594271978 -111.92457439397195 L -63.26765520838585 -110.66071941280697"></path><path d="M -49.387676527020645 -120.51799111826627 L -45.49550201034663 -123.32009934565669"></path><path d="M -61.78170831768709 -119.79005433728511 L -66.28420332605889 -119.20136799391197"></path><path d="M -53.29821808819736 -128.49524289620004 L -50.432795806913475 -131.5435996417895"></path><path d="M -64.93505891307579 -128.43565619812182 L -68.62981306567698 -128.90535396449542"></path><path d="M -58.03577471783786 -136.6785203938102 L -56.705887403898366 -139.54865055272995"></path><path d="M -67.36672708442394 -137.72506076000636 L -69.54720524541546 -138.94797326277958"></path><path d="M -63.366649085765616 -97.5522998076788 L -81.41213213542446 -78.68034535242258"></path><path d="M -68.24916942311276 -101.03956164978236 L -72.31793637090206 -103.94561318486866"></path><path d="M -62.070200591410746 -90.35777606439325 L -59.16929125970159 -86.40876035801745"></path><path d="M -73.15910985728561 -95.6821328729255 L -77.20794553093299 -97.86546282687208"></path><path d="M -67.89571544135883 -84.90832472703164 L -66.36642241953912 -81.10421341774881"></path><path d="M -78.34797700265047 -88.82006131595477 L -81.72450929148188 -89.21884659963375"></path><path d="M -75.36582951742261 -79.8007760526636 L -75.66614348643103 -77.31887929413023"></path><path d="M -73.83800772149831 -109.34105825559737 L -88.90838150444348 -122.4895879848986"></path><path d="M -70.57702006720828 -114.37752125244029 L -67.85953035529991 -118.57457374980939"></path><path d="M -80.39032375985217 -107.2156819939638 L -84.20294786749884 -104.13771230376354"></path><path d="M -75.00156356772972 -118.03364979704236 L -73.00513474144266 -122.17783511403411"></path><path d="M -84.94854496601995 -111.78223622662456 L -88.67896213456336 -110.08106376369304"></path><path d="M -80.94190390118237 -121.89980207182974 L -80.69750583116888 -125.29100681105939"></path><path d="M -89.24021411892613 -118.00726989792919 L -91.73322361187908 -118.19409513189525"></path><path d="M 7.918571535047468 -104.13851870618629 L 72.25696525730808 -113.38898319394983"></path><path d="M 10.172431989778907 -96.46257491727032 L 21.44173426343611 -58.082855972690425"></path><path d="M 4.714640017651798 -93.97008483925899 L 0.16648004087920754 -91.89300977424956"></path><path d="M 17.53294654820263 -92.423701149696 L 22.44221204224181 -93.04940979551509"></path><path d="M 7.7028735926171175 -84.03059425903486 L 3.4769629398607176 -81.76288348797615"></path><path d="M 20.398413972635357 -82.06143747944841 L 24.939225478510483 -82.05482087918656"></path><path d="M 11.160020522069841 -73.47734864458971 L 7.919721767205139 -70.8309194130248"></path><path d="M 23.01729126778775 -70.94486779113697 L 26.618590681555062 -69.99488527956149"></path><path d="M 15.410038492684073 -62.611443418551076 L 13.715387535669283 -59.940412619251525"></path><path d="M 24.83631892477512 -59.284654841694824 L 26.837672027086022 -57.78646067541646"></path><path d="M 17.284289718504045 -113.45810984964892 L 18.144765739311733 -152.89316758446756"></path><path d="M 23.240432556610145 -114.18223863106655 L 28.203884921698563 -114.78567928224793"></path><path d="M 11.489480937982258 -119.465475670452 L 6.621030908535774 -120.35462881316647"></path><path d="M 23.39691893723707 -124.42112664640123 L 28.110915196352067 -125.30377734475566"></path><path d="M 11.890907788814387 -130.07016797693183 L 7.564977695814079 -131.45050914554244"></path><path d="M 23.292195514987235 -135.38688770080762 L 27.181385637933722 -136.9287449853948"></path><path d="M 12.755614840218382 -141.31918606785925 L 9.610610719774465 -143.31437360849068"></path><path d="M 22.526381674528878 -146.89057066366098 L 24.949830367606957 -148.92358414835215"></path><path d="M 14.547178199597301 -152.8443288107332 L 13.092999850800023 -154.87788857869904"></path><path d="M 29.215256158862 -99.33121093644634 L 42.97716424128535 -64.1492499371204"></path><path d="M 23.99546755698153 -96.37252762259223 L 19.645643722081136 -93.90695819438048"></path><path d="M 36.79858227966173 -96.20790830597228 L 41.63463243457832 -97.25910662196584"></path><path d="M 27.636232683862396 -87.24868330097156 L 23.62404691356553 -84.6212894723111"></path><path d="M 40.353895520951625 -86.65219989854045 L 44.8780045428487 -87.04136627591186"></path><path d="M 31.797619084220685 -77.55428796002744 L 28.800302149697337 -74.63551854596291"></path><path d="M 43.72929908411406 -76.32356408930299 L 47.39969089774362 -75.69107047325521"></path><path d="M 36.77610949273017 -67.61752603620198 L 35.320702867450755 -64.80896075264336"></path><path d="M 46.355278310679516 -65.38364225637314 L 48.479591885553305 -64.06557858734688"></path><path d="M 37.052891420716755 -115.94928572988222 L 43.88105269128125 -150.27677054399527"></path><path d="M 43.044290709021126 -115.62814001824053 L 48.03712344927477 -115.36051859187245"></path><path d="M 32.28090342156556 -122.32676343872045 L 27.640815910313343 -124.04780582295672"></path><path d="M 44.75959693063962 -124.59454132047009 L 49.555247679572304 -124.64520571148711"></path><path d="M 34.30095016580869 -131.6108781766669 L 30.280434399721038 -133.72143873868058"></path><path d="M 46.34388189185231 -134.32213143329128 L 50.44172718555956 -135.16521366374118"></path><path d="M 36.88912484168518 -141.44908218002448 L 34.13836108115108 -143.96008257302174"></path><path d="M 47.3705290429001 -144.6942683584612 L 50.110189191659614 -146.27556835094109"></path><path d="M 40.43802333820309 -151.39826897257788 L 39.359061173929085 -153.65344981855569"></path><path d="M 49.426631380204945 -102.98233635323128 L 67.87265583968266 -77.92948389670946"></path><path d="M 45.15046635193177 -98.77348702699335 L 41.586995495037456 -95.26611258846174"></path><path d="M 57.065842192964524 -102.59922545236874 L 61.46503779046888 -104.86626693750192"></path><path d="M 50.04042020866679 -92.24494661116601 L 46.844965915109704 -88.6686489663882"></path><path d="M 61.98503051680583 -95.63141978717883 L 66.25426059182632 -97.17825121879233"></path><path d="M 55.58092506917271 -85.30004293142011 L 53.441172345165654 -81.70496546652963"></path><path d="M 66.93048776821338 -87.87045953164073 L 70.63951540733707 -88.20948491729293"></path><path d="M 61.973420881462296 -78.33251318897885 L 61.294516219151426 -75.24296049377999"></path><path d="M 71.31026916298894 -79.32507702739397 L 73.70333848829769 -78.60173809973533"></path><path d="M 58.024753116232084 -117.58528830568667 L 71.5704993015346 -139.90798715103583"></path><path d="M 63.544988513309534 -115.23433080695277 L 68.14518467754074 -113.27519955800784"></path><path d="M 55.20567738017655 -124.33026885314547 L 51.52063727264823 -127.55989412644075"></path><path d="M 67.18254946000339 -121.5254124727164 L 71.60725863804507 -120.26765705541392"></path><path d="M 59.71735570947358 -130.9088630645397 L 57.40287002153818 -134.29311423730186"></path><path d="M 70.76762777542892 -129.34587165216993 L 74.1506286631381 -129.68543754232817"></path><path d="M 65.90866326354492 -137.50866370860038 L 65.66608775583609 -139.9968673021714"></path><path d="M 70.08719807066603 -108.23349637336601 L 87.64077786201115 -98.64851663896488"></path><path d="M 67.99041299307144 -102.61179802336744 L 66.24309209507595 -97.92704939836862"></path><path d="M 76.0261609478414 -111.72330864102705 L 79.08438602716815 -115.55178867417035"></path><path d="M 73.09992734985235 -99.99708500651249 L 72.04525033722071 -95.51962407435167"></path><path d="M 81.46274916454185 -108.24849833163982 L 84.73793759049146 -110.71490072673389"></path><path d="M 79.73483503102953 -97.5045407739373 L 80.2283150343544 -94.14054352567467"></path><path d="M 86.99711409154233 -103.09677306900502 L 89.47166769624467 -103.45256016468824"></path></g><g id="tree-leafs"><path d="M2 0 Q4 8 14 0 Q4 -8 2 0 Z" class="leaf" transform="translate(2.2352933444222494, -109.88101149449392) rotate(-12.077922077922077) scale(1)"></path><path d="M2 0 Q4 8 14 0 Q4 -8 2 0 Z" class="leaf" transform="translate(-19.76479443998307, -113.5609075098961) rotate(-174.79591836734693) scale(1)"></path><path d="M2 0 Q4 8 14 0 Q4 -8 2 0 Z" class="leaf" transform="translate(1.189832550143164, -120.48694225647431) rotate(-15.751391465677177) scale(1)"></path><path d="M2 0 Q4 8 14 0 Q4 -8 2 0 Z" class="leaf" transform="translate(-19.829342923792865, -124.83529862574788) rotate(-167.44897959183675) scale(1)"></path><path d="M2 0 Q4 8 14 0 Q4 -8 2 0 Z" class="leaf" transform="translate(-0.7880975764112357, -132.12024518163025) rotate(-26.771799628942492) scale(1)"></path><path d="M2 0 Q4 8 14 0 Q4 -8 2 0 Z" class="leaf" transform="translate(-18.865530744056834, -136.97339486175187) rotate(-152.75510204081633) scale(1)"></path><path d="M2 0 Q4 8 14 0 Q4 -8 2 0 Z" class="leaf" transform="translate(-4.095981128913419, -144.00514258665882) rotate(-45.139146567717994) scale(1)"></path><path d="M2 0 Q4 8 14 0 Q4 -8 2 0 Z" class="leaf" transform="translate(-16.443813643150015, -148.94122316241817) rotate(-130.7142857142857) scale(0.8333333333333334)"></path><path d="M2 0 Q4 8 14 0 Q4 -8 2 0 Z" class="leaf" transform="translate(-30.79545064982305, -93.63445702331049) rotate(-174.4642857142857) scale(1)"></path><path d="M2 0 Q4 8 14 0 Q4 -8 2 0 Z" class="leaf" transform="translate(-10.923812891892135, -83.53738818879275) rotate(-337.1822820037105) scale(1)"></path><path d="M2 0 Q4 8 14 0 Q4 -8 2 0 Z" class="leaf" transform="translate(-32.97538704883939, -83.34432060445755) rotate(-178.1377551020408) scale(1)"></path><path d="M2 0 Q4 8 14 0 Q4 -8 2 0 Z" class="leaf" transform="translate(-14.24094905904034, -72.90695059026379) rotate(-329.8353432282003) scale(1)"></path><path d="M2 0 Q4 8 14 0 Q4 -8 2 0 Z" class="leaf" transform="translate(-34.57744898000304, -71.79281440766242) rotate(-189.15816326530611) scale(1)"></path><path d="M2 0 Q4 8 14 0 Q4 -8 2 0 Z" class="leaf" transform="translate(-18.799589335807653, -61.764478095751706) rotate(-315.1414656771799) scale(1)"></path><path d="M2 0 Q4 8 14 0 Q4 -8 2 0 Z" class="leaf" transform="translate(-34.988039131117816, -59.5990692406702) rotate(-207.52551020408163) scale(1)"></path><path d="M2 0 Q4 8 14 0 Q4 -8 2 0 Z" class="leaf" transform="translate(-24.696263499797958, -51.22544842837498) rotate(-293.1006493506493) scale(0.8333333333333334)"></path><path d="M2 0 Q4 8 14 0 Q4 -8 2 0 Z" class="leaf" transform="translate(-18.643883241480452, -112.22659774956541) rotate(-17.07792207792207) scale(1)"></path><path d="M2 0 Q4 8 14 0 Q4 -8 2 0 Z" class="leaf" transform="translate(-40.83802167452896, -113.70062044056144) rotate(-179.79591836734693) scale(1)"></path><path d="M2 0 Q4 8 14 0 Q4 -8 2 0 Z" class="leaf" transform="translate(-20.52382062332356, -122.1521793955134) rotate(-20.751391465677173) scale(1)"></path><path d="M2 0 Q4 8 14 0 Q4 -8 2 0 Z" class="leaf" transform="translate(-41.79903957202866, -124.37761088790994) rotate(-172.44897959183672) scale(1)"></path><path d="M2 0 Q4 8 14 0 Q4 -8 2 0 Z" class="leaf" transform="translate(-23.422220394072312, -133.0199536861401) rotate(-31.77179962894248) scale(1)"></path><path d="M2 0 Q4 8 14 0 Q4 -8 2 0 Z" class="leaf" transform="translate(-41.81088689003972, -136.00464733411258) rotate(-157.75510204081633) scale(1)"></path><path d="M2 0 Q4 8 14 0 Q4 -8 2 0 Z" class="leaf" transform="translate(-27.66744062022371, -144.02245198502675) rotate(-50.13914656771799) scale(1)"></path><path d="M2 0 Q4 8 14 0 Q4 -8 2 0 Z" class="leaf" transform="translate(-40.355537226888096, -147.58912855213683) rotate(-135.7142857142857) scale(0.8333333333333334)"></path><path d="M2 0 Q4 8 14 0 Q4 -8 2 0 Z" class="leaf" transform="translate(-51.70966845830776, -97.46165596106847) rotate(-164.4642857142857) scale(1)"></path><path d="M2 0 Q4 8 14 0 Q4 -8 2 0 Z" class="leaf" transform="translate(-33.669803159954576, -84.57594369218215) rotate(-327.18228200371055) scale(1)"></path><path d="M2 0 Q4 8 14 0 Q4 -8 2 0 Z" class="leaf" transform="translate(-55.196430217842, -88.72365799128133) rotate(-168.1377551020408) scale(1)"></path><path d="M2 0 Q4 8 14 0 Q4 -8 2 0 Z" class="leaf" transform="translate(-38.33558074757741, -75.7002871496702) rotate(-319.8353432282004) scale(1)"></path><path d="M2 0 Q4 8 14 0 Q4 -8 2 0 Z" class="leaf" transform="translate(-58.333131284470916, -78.64310643649853) rotate(-179.15816326530611) scale(1)"></path><path d="M2 0 Q4 8 14 0 Q4 -8 2 0 Z" class="leaf" transform="translate(-44.31291513433901, -66.53595959798265) rotate(-305.1414656771799) scale(1)"></path><path d="M2 0 Q4 8 14 0 Q4 -8 2 0 Z" class="leaf" transform="translate(-60.407985331413855, -67.72317606123201) rotate(-197.52551020408163) scale(1)"></path><path d="M2 0 Q4 8 14 0 Q4 -8 2 0 Z" class="leaf" transform="translate(-51.50316891977265, -58.19825436713046) rotate(-283.10064935064935) scale(0.8333333333333334)"></path><path d="M2 0 Q4 8 14 0 Q4 -8 2 0 Z" class="leaf" transform="translate(-41.785824738926166, -115.74308979538921) rotate(-32.07792207792208) scale(1)"></path><path d="M2 0 Q4 8 14 0 Q4 -8 2 0 Z" class="leaf" transform="translate(-63.26765520838585, -110.66071941280697) rotate(-194.79591836734693) scale(1)"></path><path d="M2 0 Q4 8 14 0 Q4 -8 2 0 Z" class="leaf" transform="translate(-45.49550201034663, -123.32009934565669) rotate(-35.75139146567718) scale(1)"></path><path d="M2 0 Q4 8 14 0 Q4 -8 2 0 Z" class="leaf" transform="translate(-66.28420332605889, -119.20136799391197) rotate(-187.44897959183672) scale(1)"></path><path d="M2 0 Q4 8 14 0 Q4 -8 2 0 Z" class="leaf" transform="translate(-50.432795806913475, -131.5435996417895) rotate(-46.771799628942496) scale(1)"></path><path d="M2 0 Q4 8 14 0 Q4 -8 2 0 Z" class="leaf" transform="translate(-68.62981306567698, -128.90535396449542) rotate(-172.75510204081633) scale(1)"></path><path d="M2 0 Q4 8 14 0 Q4 -8 2 0 Z" class="leaf" transform="translate(-56.705887403898366, -139.54865055272995) rotate(-65.139146567718) scale(1)"></path><path d="M2 0 Q4 8 14 0 Q4 -8 2 0 Z" class="leaf" transform="translate(-69.54720524541546, -138.94797326277958) rotate(-150.7142857142857) scale(0.8333333333333334)"></path><path d="M2 0 Q4 8 14 0 Q4 -8 2 0 Z" class="leaf" transform="translate(-72.31793637090206, -103.94561318486866) rotate(-144.46428571428572) scale(1)"></path><path d="M2 0 Q4 8 14 0 Q4 -8 2 0 Z" class="leaf" transform="translate(-59.16929125970159, -86.40876035801745) rotate(-306.3006493506493) scale(1)"></path><path d="M2 0 Q4 8 14 0 Q4 -8 2 0 Z" class="leaf" transform="translate(-77.20794553093299, -97.86546282687208) rotate(-151.6642857142857) scale(1)"></path><path d="M2 0 Q4 8 14 0 Q4 -8 2 0 Z" class="leaf" transform="translate(-66.36642241953912, -81.10421341774881) rotate(-291.90064935064936) scale(1)"></path><path d="M2 0 Q4 8 14 0 Q4 -8 2 0 Z" class="leaf" transform="translate(-81.72450929148188, -89.21884659963375) rotate(-173.2642857142857) scale(1)"></path><path d="M2 0 Q4 8 14 0 Q4 -8 2 0 Z" class="leaf" transform="translate(-75.66614348643103, -77.31887929413023) rotate(-263.1006493506493) scale(0.8333333333333334)"></path><path d="M2 0 Q4 8 14 0 Q4 -8 2 0 Z" class="leaf" transform="translate(-67.85953035529991, -118.57457374980939) rotate(-57.07792207792206) scale(1)"></path><path d="M2 0 Q4 8 14 0 Q4 -8 2 0 Z" class="leaf" transform="translate(-84.20294786749884, -104.13771230376354) rotate(-218.9142857142857) scale(1)"></path><path d="M2 0 Q4 8 14 0 Q4 -8 2 0 Z" class="leaf" transform="translate(-73.00513474144266, -122.17783511403411) rotate(-64.27792207792207) scale(1)"></path><path d="M2 0 Q4 8 14 0 Q4 -8 2 0 Z" class="leaf" transform="translate(-88.67896213456336, -110.08106376369304) rotate(-204.51428571428568) scale(1)"></path><path d="M2 0 Q4 8 14 0 Q4 -8 2 0 Z" class="leaf" transform="translate(-80.69750583116888, -125.29100681105939) rotate(-85.87792207792207) scale(1)"></path><path d="M2 0 Q4 8 14 0 Q4 -8 2 0 Z" class="leaf" transform="translate(-91.73322361187908, -118.19409513189525) rotate(-175.7142857142857) scale(0.8333333333333334)"></path><path d="M2 0 Q4 8 14 0 Q4 -8 2 0 Z" class="leaf" transform="translate(0.16648004087920754, -91.89300977424956) rotate(155.4545454545454) scale(1)"></path><path d="M2 0 Q4 8 14 0 Q4 -8 2 0 Z" class="leaf" transform="translate(22.44221204224181, -93.04940979551509) rotate(-7.263450834879419) scale(1)"></path><path d="M2 0 Q4 8 14 0 Q4 -8 2 0 Z" class="leaf" transform="translate(3.4769629398607176, -81.76288348797615) rotate(151.78107606679032) scale(1)"></path><path d="M2 0 Q4 8 14 0 Q4 -8 2 0 Z" class="leaf" transform="translate(24.939225478510483, -82.05482087918656) rotate(0.08348794063079513) scale(1)"></path><path d="M2 0 Q4 8 14 0 Q4 -8 2 0 Z" class="leaf" transform="translate(7.919721767205139, -70.8309194130248) rotate(140.76066790352502) scale(1)"></path><path d="M2 0 Q4 8 14 0 Q4 -8 2 0 Z" class="leaf" transform="translate(26.618590681555062, -69.99488527956149) rotate(14.777365491651196) scale(1)"></path><path d="M2 0 Q4 8 14 0 Q4 -8 2 0 Z" class="leaf" transform="translate(13.715387535669283, -59.940412619251525) rotate(122.39332096474952) scale(1)"></path><path d="M2 0 Q4 8 14 0 Q4 -8 2 0 Z" class="leaf" transform="translate(26.837672027086022, -57.78646067541646) rotate(36.818181818181806) scale(0.8333333333333334)"></path><path d="M2 0 Q4 8 14 0 Q4 -8 2 0 Z" class="leaf" transform="translate(28.203884921698563, -114.78567928224793) rotate(-6.931818181818191) scale(1)"></path><path d="M2 0 Q4 8 14 0 Q4 -8 2 0 Z" class="leaf" transform="translate(6.621030908535774, -120.35462881316647) rotate(-169.64981447124305) scale(1)"></path><path d="M2 0 Q4 8 14 0 Q4 -8 2 0 Z" class="leaf" transform="translate(28.110915196352067, -125.30377734475566) rotate(-10.60528756957329) scale(1)"></path><path d="M2 0 Q4 8 14 0 Q4 -8 2 0 Z" class="leaf" transform="translate(7.564977695814079, -131.45050914554244) rotate(-162.3028756957328) scale(1)"></path><path d="M2 0 Q4 8 14 0 Q4 -8 2 0 Z" class="leaf" transform="translate(27.181385637933722, -136.9287449853948) rotate(-21.625695732838604) scale(1)"></path><path d="M2 0 Q4 8 14 0 Q4 -8 2 0 Z" class="leaf" transform="translate(9.610610719774465, -143.31437360849068) rotate(-147.60899814471242) scale(1)"></path><path d="M2 0 Q4 8 14 0 Q4 -8 2 0 Z" class="leaf" transform="translate(24.949830367606957, -148.92358414835215) rotate(-39.993042671614106) scale(1)"></path><path d="M2 0 Q4 8 14 0 Q4 -8 2 0 Z" class="leaf" transform="translate(13.092999850800023, -154.87788857869904) rotate(-125.5681818181818) scale(0.8333333333333334)"></path><path d="M2 0 Q4 8 14 0 Q4 -8 2 0 Z" class="leaf" transform="translate(19.645643722081136, -93.90695819438048) rotate(150.45454545454544) scale(1)"></path><path d="M2 0 Q4 8 14 0 Q4 -8 2 0 Z" class="leaf" transform="translate(41.63463243457832, -97.25910662196584) rotate(-12.26345083487941) scale(1)"></path><path d="M2 0 Q4 8 14 0 Q4 -8 2 0 Z" class="leaf" transform="translate(23.62404691356553, -84.6212894723111) rotate(146.78107606679032) scale(1)"></path><path d="M2 0 Q4 8 14 0 Q4 -8 2 0 Z" class="leaf" transform="translate(44.8780045428487, -87.04136627591186) rotate(-4.916512059369199) scale(1)"></path><path d="M2 0 Q4 8 14 0 Q4 -8 2 0 Z" class="leaf" transform="translate(28.800302149697337, -74.63551854596291) rotate(135.76066790352502) scale(1)"></path><path d="M2 0 Q4 8 14 0 Q4 -8 2 0 Z" class="leaf" transform="translate(47.39969089774362, -75.69107047325521) rotate(9.777365491651201) scale(1)"></path><path d="M2 0 Q4 8 14 0 Q4 -8 2 0 Z" class="leaf" transform="translate(35.320702867450755, -64.80896075264336) rotate(117.39332096474953) scale(1)"></path><path d="M2 0 Q4 8 14 0 Q4 -8 2 0 Z" class="leaf" transform="translate(48.479591885553305, -64.06557858734688) rotate(31.818181818181817) scale(0.8333333333333334)"></path><path d="M2 0 Q4 8 14 0 Q4 -8 2 0 Z" class="leaf" transform="translate(48.03712344927477, -115.36051859187245) rotate(3.06818181818181) scale(1)"></path><path d="M2 0 Q4 8 14 0 Q4 -8 2 0 Z" class="leaf" transform="translate(27.640815910313343, -124.04780582295672) rotate(-159.64981447124305) scale(1)"></path><path d="M2 0 Q4 8 14 0 Q4 -8 2 0 Z" class="leaf" transform="translate(49.555247679572304, -124.64520571148711) rotate(-0.6052875695732901) scale(1)"></path><path d="M2 0 Q4 8 14 0 Q4 -8 2 0 Z" class="leaf" transform="translate(30.280434399721038, -133.72143873868058) rotate(-152.30287569573284) scale(1)"></path><path d="M2 0 Q4 8 14 0 Q4 -8 2 0 Z" class="leaf" transform="translate(50.44172718555956, -135.16521366374118) rotate(-11.625695732838603) scale(1)"></path><path d="M2 0 Q4 8 14 0 Q4 -8 2 0 Z" class="leaf" transform="translate(34.13836108115108, -143.96008257302174) rotate(-137.60899814471244) scale(1)"></path><path d="M2 0 Q4 8 14 0 Q4 -8 2 0 Z" class="leaf" transform="translate(50.110189191659614, -146.27556835094109) rotate(-29.993042671614106) scale(1)"></path><path d="M2 0 Q4 8 14 0 Q4 -8 2 0 Z" class="leaf" transform="translate(39.359061173929085, -153.65344981855569) rotate(-115.56818181818181) scale(0.8333333333333334)"></path><path d="M2 0 Q4 8 14 0 Q4 -8 2 0 Z" class="leaf" transform="translate(41.586995495037456, -95.26611258846174) rotate(135.45454545454544) scale(1)"></path><path d="M2 0 Q4 8 14 0 Q4 -8 2 0 Z" class="leaf" transform="translate(61.46503779046888, -104.86626693750192) rotate(-27.26345083487942) scale(1)"></path><path d="M2 0 Q4 8 14 0 Q4 -8 2 0 Z" class="leaf" transform="translate(46.844965915109704, -88.6686489663882) rotate(131.78107606679032) scale(1)"></path><path d="M2 0 Q4 8 14 0 Q4 -8 2 0 Z" class="leaf" transform="translate(66.25426059182632, -97.17825121879233) rotate(-19.916512059369207) scale(1)"></path><path d="M2 0 Q4 8 14 0 Q4 -8 2 0 Z" class="leaf" transform="translate(53.441172345165654, -81.70496546652963) rotate(120.760667903525) scale(1)"></path><path d="M2 0 Q4 8 14 0 Q4 -8 2 0 Z" class="leaf" transform="translate(70.63951540733707, -88.20948491729293) rotate(-5.222634508348806) scale(1)"></path><path d="M2 0 Q4 8 14 0 Q4 -8 2 0 Z" class="leaf" transform="translate(61.294516219151426, -75.24296049377999) rotate(102.39332096474952) scale(1)"></path><path d="M2 0 Q4 8 14 0 Q4 -8 2 0 Z" class="leaf" transform="translate(73.70333848829769, -78.60173809973533) rotate(16.818181818181806) scale(0.8333333333333334)"></path><path d="M2 0 Q4 8 14 0 Q4 -8 2 0 Z" class="leaf" transform="translate(68.14518467754074, -113.27519955800784) rotate(23.06818181818181) scale(1)"></path><path d="M2 0 Q4 8 14 0 Q4 -8 2 0 Z" class="leaf" transform="translate(51.52063727264823, -127.55989412644075) rotate(-138.7681818181818) scale(1)"></path><path d="M2 0 Q4 8 14 0 Q4 -8 2 0 Z" class="leaf" transform="translate(71.60725863804507, -120.26765705541392) rotate(15.868181818181816) scale(1)"></path><path d="M2 0 Q4 8 14 0 Q4 -8 2 0 Z" class="leaf" transform="translate(57.40287002153818, -134.29311423730186) rotate(-124.36818181818182) scale(1)"></path><path d="M2 0 Q4 8 14 0 Q4 -8 2 0 Z" class="leaf" transform="translate(74.1506286631381, -129.68543754232817) rotate(-5.7318181818181895) scale(1)"></path><path d="M2 0 Q4 8 14 0 Q4 -8 2 0 Z" class="leaf" transform="translate(65.66608775583609, -139.9968673021714) rotate(-95.56818181818181) scale(0.8333333333333334)"></path><path d="M2 0 Q4 8 14 0 Q4 -8 2 0 Z" class="leaf" transform="translate(66.24309209507595, -97.92704939836862) rotate(110.45454545454544) scale(1)"></path><path d="M2 0 Q4 8 14 0 Q4 -8 2 0 Z" class="leaf" transform="translate(79.08438602716815, -115.55178867417035) rotate(-51.38181818181818) scale(1)"></path><path d="M2 0 Q4 8 14 0 Q4 -8 2 0 Z" class="leaf" transform="translate(72.04525033722071, -95.51962407435167) rotate(103.25454545454544) scale(1)"></path><path d="M2 0 Q4 8 14 0 Q4 -8 2 0 Z" class="leaf" transform="translate(84.73793759049146, -110.71490072673389) rotate(-36.98181818181819) scale(1)"></path><path d="M2 0 Q4 8 14 0 Q4 -8 2 0 Z" class="leaf" transform="translate(80.2283150343544, -94.14054352567467) rotate(81.65454545454544) scale(1)"></path><path d="M2 0 Q4 8 14 0 Q4 -8 2 0 Z" class="leaf" transform="translate(89.47166769624467, -103.45256016468824) rotate(-8.181818181818189) scale(0.8333333333333334)"></path></g></g>

<path id="tree-txt-r" class="stroke" transform="translate(200,162)" d="M 0 0 L 0 -60 M 8 -40 L 48 -60"></path>

<path id="tree-txt-e" class="stroke" transform="translate(270,162)" d="M 0 0 L 0 -60 M 8 0 L 48 0 M 8 -30 L 38 -30 M 8 -60 L 48 -60"></path>

<path id="tree-txt-e2" class="stroke" transform="translate(340,162)" d="M 0 0 L 0 -60 M 8 0 L 48 0 M 8 -30 L 38 -30 M 8 -60 L 48 -60"></path>

<g id="tree-txt-q" class="stroke" transform="translate(470, 110)"><path d="M 55 8.660254037844387 L 42.50000000000001 30.310889132455355"></path><path d="M 14.165476220843939 15.636619391143675 L 53.05634918610404 54.52749235640379"></path><path d="M 2.3873016277919135 14.786648028367168 L 41.27817459305202 53.67752099362727"></path><path d="M 20.000000000000007 51.96152422706631 L -39.99999999999999 51.96152422706632"></path><path d="M -34.99999999999999 43.30127018922194 L -65.00000000000001 -8.660254037844375"></path><path d="M -55.00000000000001 -8.660254037844384 L -25.00000000000005 -60.62177826491072"></path><path d="M -20.00000000000003 -51.961524227066306 L 39.99999999999997 -51.96152422706632"></path><path d="M 35.00000000000001 -43.301270189221924 L 64.99999999999999 8.660254037844403"></path></g>

<path id="tree-txt-u" class="stroke" transform="translate(552,162)" d="M 0 -10 L 0 -60 M 6 0 L 42 0 M 48 -10 L 48 -60"></path>

<path id="tree-txt-o" class="stroke" transform="translate(622,162)" d="M 0 -12 L 0 -38 M 12 0 L 38 0 M 50 -12 L 50 -38 M 12 -50 L 38 -50"></path>

</svg>
